<svg xmlns="http://www.w3.org/2000/svg" viewBox="0 0 48 48"><path fill="#FF8200" fill-rule="evenodd" d="M4.847 28.986c1.719 2.733 3.846 5.373 6.313 7.84a47.715 47.715 0 005.492 4.725 38.494 38.494 0 005.716 3.482 30.057 30.057 0 005.731 2.148c1.895.488 3.756.737 5.547.737 3.403 0 6.522-.884 9.22-2.634 1.457-.946 2.495-1.724 3.365-2.63 1.05-1.08 1.64-2.15 1.752-3.235.11-1.142-.304-2.232-1.259-3.175-1.529-1.529-3.057-2.835-4.442-3.785-1.997-1.379-3.599-2.01-4.947-2.01-.304 0-.578.033-.84.091l-.443.098-.39.228c-.303.177-.655.433-1.102.816-.528.456-1.028.933-2.216 2.1-1.349 1.337-1.993 1.932-2.42 2.242a1.76 1.76 0 01-1.046.316c-.484 0-1.05-.13-1.751-.428-.819-.35-1.757-.903-2.854-1.695-1.588-1.151-3.269-2.625-5.613-4.848-2.783-2.931-4.466-4.91-5.638-6.757-.492-.772-.854-1.48-1.081-2.096-.171-.465-.258-.851-.279-1.204-.033-.53.091-.915.3-1.212.304-.43.839-1.009 2.161-2.345 1.164-1.174 1.734-1.769 2.198-2.309.404-.471.685-.856.87-1.201l.165-.312.087-.342c.39-1.539-.23-3.302-1.557-5.348-1.078-1.666-2.509-3.332-4.128-4.96C10.981.507 10.067 0 8.933 0 7.656 0 6.565.624 5.517 1.6c-.973.9-1.823 2.016-2.82 3.542C1.305 7.295.455 9.722.172 12.358c-.268 2.656.03 5.476.874 8.377.796 2.742 2.08 5.52 3.801 8.251z"/></svg>